<svg class="svg-icon" style="width: 1em;height: 1em;vertical-align: middle;fill: currentColor;overflow: hidden;" viewBox="0 0 1024 1024" version="1.1" xmlns="http://www.w3.org/2000/svg"><path d="M241.066667 228.266667h539.733333c4.266667 0 6.4 2.133333 10.666667 4.266666 2.133333 2.133333 4.266667 6.4 4.266666 10.666667v85.333333c0 4.266667-2.133333 6.4-4.266666 10.666667s-6.4 4.266667-10.666667 4.266667h-539.733333c-4.266667 0-6.4-2.133333-10.666667-4.266667-2.133333-2.133333-4.266667-6.4-4.266667-10.666667v-85.333333c0-4.266667 2.133333-6.4 4.266667-10.666667 4.266667-4.266667 8.533333-4.266667 10.666667-4.266666z m0 226.133333h539.733333c4.266667 0 6.4 2.133333 10.666667 4.266667s4.266667 6.4 4.266666 10.666666v85.333334c0 4.266667-2.133333 6.4-4.266666 10.666666s-6.4 4.266667-10.666667 4.266667h-539.733333c-4.266667 0-6.4-2.133333-10.666667-4.266667-2.133333-2.133333-4.266667-6.4-4.266667-10.666666v-85.333334c0-4.266667 2.133333-6.4 4.266667-10.666666 4.266667-2.133333 8.533333-4.266667 10.666667-4.266667z m0 228.266667h539.733333c4.266667 0 6.4 2.133333 10.666667 4.266666s4.266667 6.4 4.266666 10.666667v85.333333c0 4.266667-2.133333 6.4-4.266666 10.666667-2.133333 2.133333-6.4 4.266667-10.666667 4.266667h-539.733333c-4.266667 0-6.4-2.133333-10.666667-4.266667-2.133333-2.133333-4.266667-6.4-4.266667-10.666667v-85.333333c0-4.266667 2.133333-6.4 4.266667-10.666667 4.266667-2.133333 8.533333-4.266667 10.666667-4.266666z"  /></svg>